<svg xmlns="http://www.w3.org/2000/svg" xmlns:xlink="http://www.w3.org/1999/xlink" width="136" zoomAndPan="magnify" viewBox="0 0 102 34.499999" height="46" preserveAspectRatio="xMidYMid meet" version="1.0"><defs><g/></defs><g fill="#00688f" fill-opacity="1"><g transform="translate(46.415892, 21.394611)"><g><path d="M 2.046875 0 L 2.046875 -0.140625 L 2.53125 -0.140625 C 2.882812 -0.140625 3.128906 -0.210938 3.265625 -0.359375 C 3.410156 -0.503906 3.484375 -0.78125 3.484375 -1.1875 L 3.484375 -9.40625 L 1.921875 -9.40625 C 1.390625 -9.40625 1.023438 -9.304688 0.828125 -9.109375 C 0.640625 -8.921875 0.535156 -8.554688 0.515625 -8.015625 L 0.46875 -7.375 L 0.328125 -7.375 L 0.421875 -9.578125 L 7.484375 -9.578125 L 7.5625 -7.375 L 7.421875 -7.375 L 7.390625 -8.015625 C 7.359375 -8.554688 7.25 -8.921875 7.0625 -9.109375 C 6.875 -9.304688 6.519531 -9.40625 6 -9.40625 L 4.390625 -9.40625 L 4.390625 -1.1875 C 4.390625 -0.78125 4.457031 -0.503906 4.59375 -0.359375 C 4.726562 -0.210938 4.972656 -0.140625 5.328125 -0.140625 L 5.8125 -0.140625 L 5.8125 0 Z M 2.046875 0 "/></g></g></g><g fill="#00688f" fill-opacity="1"><g transform="translate(54.322951, 21.394611)"><g><path d="M 0.234375 0 L 0.234375 -0.140625 L 0.4375 -0.140625 C 0.738281 -0.140625 0.96875 -0.164062 1.125 -0.21875 C 1.28125 -0.28125 1.382812 -0.390625 1.4375 -0.546875 C 1.488281 -0.710938 1.515625 -0.953125 1.515625 -1.265625 L 1.515625 -8.921875 C 1.515625 -9.234375 1.488281 -9.46875 1.4375 -9.625 C 1.382812 -9.789062 1.28125 -9.90625 1.125 -9.96875 C 0.976562 -10.03125 0.773438 -10.0625 0.515625 -10.0625 L 0.328125 -10.0625 L 0.328125 -10.1875 L 2.375 -10.1875 L 2.375 -7.015625 C 2.375 -6.816406 2.375 -6.625 2.375 -6.4375 C 2.375 -6.25 2.367188 -6.023438 2.359375 -5.765625 L 2.390625 -5.765625 C 2.492188 -6.160156 2.65625 -6.46875 2.875 -6.6875 C 3.101562 -6.90625 3.351562 -7.0625 3.625 -7.15625 C 3.90625 -7.25 4.191406 -7.296875 4.484375 -7.296875 C 5.234375 -7.296875 5.796875 -7.09375 6.171875 -6.6875 C 6.554688 -6.289062 6.75 -5.648438 6.75 -4.765625 L 6.75 -1.265625 C 6.75 -0.953125 6.769531 -0.710938 6.8125 -0.546875 C 6.863281 -0.390625 6.960938 -0.28125 7.109375 -0.21875 C 7.253906 -0.164062 7.472656 -0.140625 7.765625 -0.140625 L 7.90625 -0.140625 L 7.90625 0 L 5.890625 0 L 5.890625 -5 C 5.890625 -5.675781 5.765625 -6.191406 5.515625 -6.546875 C 5.265625 -6.910156 4.859375 -7.09375 4.296875 -7.09375 C 3.648438 -7.09375 3.164062 -6.863281 2.84375 -6.40625 C 2.53125 -5.945312 2.375 -5.367188 2.375 -4.671875 L 2.375 -1.265625 C 2.375 -0.953125 2.394531 -0.710938 2.4375 -0.546875 C 2.488281 -0.390625 2.585938 -0.28125 2.734375 -0.21875 C 2.890625 -0.164062 3.117188 -0.140625 3.421875 -0.140625 L 3.578125 -0.140625 L 3.578125 0 Z M 0.234375 0 "/></g></g></g><g fill="#00688f" fill-opacity="1"><g transform="translate(62.591857, 21.394611)"><g><path d="M 2.78125 0.140625 C 2.125 0.140625 1.613281 -0.03125 1.25 -0.375 C 0.882812 -0.71875 0.703125 -1.207031 0.703125 -1.84375 C 0.703125 -2.550781 0.957031 -3.066406 1.46875 -3.390625 C 1.976562 -3.722656 2.753906 -3.90625 3.796875 -3.9375 L 4.90625 -3.984375 L 4.90625 -4.984375 C 4.90625 -5.472656 4.867188 -5.875 4.796875 -6.1875 C 4.734375 -6.507812 4.597656 -6.75 4.390625 -6.90625 C 4.179688 -7.070312 3.863281 -7.15625 3.4375 -7.15625 C 2.851562 -7.15625 2.472656 -7 2.296875 -6.6875 C 2.117188 -6.375 2.03125 -5.890625 2.03125 -5.234375 C 1.53125 -5.234375 1.28125 -5.445312 1.28125 -5.875 C 1.28125 -6.300781 1.460938 -6.644531 1.828125 -6.90625 C 2.203125 -7.164062 2.742188 -7.296875 3.453125 -7.296875 C 4.265625 -7.296875 4.851562 -7.113281 5.21875 -6.75 C 5.582031 -6.382812 5.765625 -5.828125 5.765625 -5.078125 L 5.765625 -1.15625 C 5.765625 -0.75 5.816406 -0.476562 5.921875 -0.34375 C 6.035156 -0.207031 6.253906 -0.140625 6.578125 -0.140625 L 6.640625 -0.140625 L 6.640625 0 L 4.96875 0 L 4.96875 -1.46875 L 4.953125 -1.46875 C 4.804688 -1.019531 4.550781 -0.640625 4.1875 -0.328125 C 3.820312 -0.015625 3.351562 0.140625 2.78125 0.140625 Z M 2.96875 -0.046875 C 3.332031 -0.046875 3.660156 -0.144531 3.953125 -0.34375 C 4.242188 -0.539062 4.472656 -0.796875 4.640625 -1.109375 C 4.816406 -1.421875 4.90625 -1.742188 4.90625 -2.078125 L 4.90625 -3.84375 L 3.921875 -3.8125 C 3.054688 -3.769531 2.445312 -3.582031 2.09375 -3.25 C 1.75 -2.914062 1.578125 -2.414062 1.578125 -1.75 C 1.578125 -1.226562 1.6875 -0.8125 1.90625 -0.5 C 2.132812 -0.195312 2.488281 -0.046875 2.96875 -0.046875 Z M 2.96875 -0.046875 "/></g></g></g><g fill="#00688f" fill-opacity="1"><g transform="translate(69.85563, 21.394611)"><g><path d="M 0.25 0 L 0.25 -0.140625 L 0.4375 -0.140625 C 0.875 -0.140625 1.160156 -0.203125 1.296875 -0.328125 C 1.441406 -0.460938 1.515625 -0.738281 1.515625 -1.15625 L 1.515625 -9.015625 C 1.515625 -9.441406 1.441406 -9.722656 1.296875 -9.859375 C 1.160156 -9.992188 0.894531 -10.0625 0.5 -10.0625 L 0.296875 -10.0625 L 0.296875 -10.1875 L 2.375 -10.1875 L 2.375 -4.8125 C 2.375 -4.5 2.367188 -4.191406 2.359375 -3.890625 C 2.359375 -3.585938 2.351562 -3.28125 2.34375 -2.96875 L 4.5625 -5.390625 C 4.945312 -5.796875 5.203125 -6.09375 5.328125 -6.28125 C 5.453125 -6.46875 5.515625 -6.609375 5.515625 -6.703125 C 5.515625 -6.847656 5.4375 -6.941406 5.28125 -6.984375 C 5.125 -7.023438 4.878906 -7.046875 4.546875 -7.046875 L 4.546875 -7.1875 L 7.09375 -7.1875 L 7.09375 -7.046875 C 6.875 -7.046875 6.6875 -7.023438 6.53125 -6.984375 C 6.375 -6.953125 6.195312 -6.851562 6 -6.6875 C 5.8125 -6.519531 5.554688 -6.257812 5.234375 -5.90625 L 3.921875 -4.484375 L 5.8125 -1.515625 C 6.0625 -1.109375 6.269531 -0.804688 6.4375 -0.609375 C 6.613281 -0.421875 6.769531 -0.296875 6.90625 -0.234375 C 7.039062 -0.171875 7.179688 -0.140625 7.328125 -0.140625 L 7.390625 -0.140625 L 7.390625 0 L 6.96875 0 C 6.644531 0 6.378906 -0.0234375 6.171875 -0.078125 C 5.960938 -0.140625 5.769531 -0.257812 5.59375 -0.4375 C 5.414062 -0.613281 5.222656 -0.875 5.015625 -1.21875 L 3.359375 -3.84375 L 2.375 -2.75 L 2.375 -1.1875 C 2.375 -0.75 2.441406 -0.460938 2.578125 -0.328125 C 2.710938 -0.203125 3 -0.140625 3.4375 -0.140625 L 3.515625 -0.140625 L 3.515625 0 Z M 0.25 0 "/></g></g></g><g fill="#00688f" fill-opacity="1"><g transform="translate(77.307024, 21.394611)"><g><path d="M 0.25 0 L 0.25 -0.140625 L 0.4375 -0.140625 C 0.875 -0.140625 1.160156 -0.203125 1.296875 -0.328125 C 1.441406 -0.460938 1.515625 -0.738281 1.515625 -1.15625 L 1.515625 -9.015625 C 1.515625 -9.441406 1.441406 -9.722656 1.296875 -9.859375 C 1.160156 -9.992188 0.894531 -10.0625 0.5 -10.0625 L 0.296875 -10.0625 L 0.296875 -10.1875 L 2.375 -10.1875 L 2.375 -4.8125 C 2.375 -4.5 2.367188 -4.191406 2.359375 -3.890625 C 2.359375 -3.585938 2.351562 -3.28125 2.34375 -2.96875 L 4.5625 -5.390625 C 4.945312 -5.796875 5.203125 -6.09375 5.328125 -6.28125 C 5.453125 -6.46875 5.515625 -6.609375 5.515625 -6.703125 C 5.515625 -6.847656 5.4375 -6.941406 5.28125 -6.984375 C 5.125 -7.023438 4.878906 -7.046875 4.546875 -7.046875 L 4.546875 -7.1875 L 7.09375 -7.1875 L 7.09375 -7.046875 C 6.875 -7.046875 6.6875 -7.023438 6.53125 -6.984375 C 6.375 -6.953125 6.195312 -6.851562 6 -6.6875 C 5.8125 -6.519531 5.554688 -6.257812 5.234375 -5.90625 L 3.921875 -4.484375 L 5.8125 -1.515625 C 6.0625 -1.109375 6.269531 -0.804688 6.4375 -0.609375 C 6.613281 -0.421875 6.769531 -0.296875 6.90625 -0.234375 C 7.039062 -0.171875 7.179688 -0.140625 7.328125 -0.140625 L 7.390625 -0.140625 L 7.390625 0 L 6.96875 0 C 6.644531 0 6.378906 -0.0234375 6.171875 -0.078125 C 5.960938 -0.140625 5.769531 -0.257812 5.59375 -0.4375 C 5.414062 -0.613281 5.222656 -0.875 5.015625 -1.21875 L 3.359375 -3.84375 L 2.375 -2.75 L 2.375 -1.1875 C 2.375 -0.75 2.441406 -0.460938 2.578125 -0.328125 C 2.710938 -0.203125 3 -0.140625 3.4375 -0.140625 L 3.515625 -0.140625 L 3.515625 0 Z M 0.25 0 "/></g></g></g><g fill="#00688f" fill-opacity="1"><g transform="translate(84.758417, 21.394611)"><g><path d="M 2.78125 0.140625 C 2.125 0.140625 1.613281 -0.03125 1.25 -0.375 C 0.882812 -0.71875 0.703125 -1.207031 0.703125 -1.84375 C 0.703125 -2.550781 0.957031 -3.066406 1.46875 -3.390625 C 1.976562 -3.722656 2.753906 -3.90625 3.796875 -3.9375 L 4.90625 -3.984375 L 4.90625 -4.984375 C 4.90625 -5.472656 4.867188 -5.875 4.796875 -6.1875 C 4.734375 -6.507812 4.597656 -6.75 4.390625 -6.90625 C 4.179688 -7.070312 3.863281 -7.15625 3.4375 -7.15625 C 2.851562 -7.15625 2.472656 -7 2.296875 -6.6875 C 2.117188 -6.375 2.03125 -5.890625 2.03125 -5.234375 C 1.53125 -5.234375 1.28125 -5.445312 1.28125 -5.875 C 1.28125 -6.300781 1.460938 -6.644531 1.828125 -6.90625 C 2.203125 -7.164062 2.742188 -7.296875 3.453125 -7.296875 C 4.265625 -7.296875 4.851562 -7.113281 5.21875 -6.75 C 5.582031 -6.382812 5.765625 -5.828125 5.765625 -5.078125 L 5.765625 -1.15625 C 5.765625 -0.75 5.816406 -0.476562 5.921875 -0.34375 C 6.035156 -0.207031 6.253906 -0.140625 6.578125 -0.140625 L 6.640625 -0.140625 L 6.640625 0 L 4.96875 0 L 4.96875 -1.46875 L 4.953125 -1.46875 C 4.804688 -1.019531 4.550781 -0.640625 4.1875 -0.328125 C 3.820312 -0.015625 3.351562 0.140625 2.78125 0.140625 Z M 2.96875 -0.046875 C 3.332031 -0.046875 3.660156 -0.144531 3.953125 -0.34375 C 4.242188 -0.539062 4.472656 -0.796875 4.640625 -1.109375 C 4.816406 -1.421875 4.90625 -1.742188 4.90625 -2.078125 L 4.90625 -3.84375 L 3.921875 -3.8125 C 3.054688 -3.769531 2.445312 -3.582031 2.09375 -3.25 C 1.75 -2.914062 1.578125 -2.414062 1.578125 -1.75 C 1.578125 -1.226562 1.6875 -0.8125 1.90625 -0.5 C 2.132812 -0.195312 2.488281 -0.046875 2.96875 -0.046875 Z M 2.96875 -0.046875 "/></g></g></g><g fill="#00688f" fill-opacity="1"><g transform="translate(92.02219, 21.394611)"><g><path d="M 0.46875 0 L 0.46875 -0.140625 L 0.703125 -0.140625 C 1.085938 -0.140625 1.347656 -0.203125 1.484375 -0.328125 C 1.628906 -0.460938 1.703125 -0.742188 1.703125 -1.171875 L 1.703125 -6.03125 C 1.703125 -6.445312 1.628906 -6.71875 1.484375 -6.84375 C 1.347656 -6.976562 1.0625 -7.046875 0.625 -7.046875 L 0.515625 -7.046875 L 0.515625 -7.1875 L 2.546875 -7.1875 L 2.546875 -5.609375 L 2.578125 -5.609375 C 2.648438 -5.867188 2.753906 -6.128906 2.890625 -6.390625 C 3.035156 -6.648438 3.234375 -6.867188 3.484375 -7.046875 C 3.734375 -7.222656 4.054688 -7.3125 4.453125 -7.3125 C 4.847656 -7.3125 5.15625 -7.222656 5.375 -7.046875 C 5.601562 -6.867188 5.71875 -6.640625 5.71875 -6.359375 C 5.71875 -6.160156 5.648438 -5.988281 5.515625 -5.84375 C 5.390625 -5.707031 5.171875 -5.640625 4.859375 -5.640625 C 4.859375 -6.128906 4.78125 -6.46875 4.625 -6.65625 C 4.46875 -6.851562 4.257812 -6.953125 4 -6.953125 C 3.738281 -6.953125 3.515625 -6.863281 3.328125 -6.6875 C 3.148438 -6.519531 3.003906 -6.289062 2.890625 -6 C 2.773438 -5.71875 2.691406 -5.40625 2.640625 -5.0625 C 2.585938 -4.726562 2.5625 -4.390625 2.5625 -4.046875 L 2.5625 -1.203125 C 2.5625 -0.753906 2.628906 -0.460938 2.765625 -0.328125 C 2.898438 -0.203125 3.164062 -0.140625 3.5625 -0.140625 L 3.875 -0.140625 L 3.875 0 Z M 0.46875 0 "/></g></g></g><g fill="#000000" fill-opacity="1"><g transform="translate(4.106064, 21.394611)"><g><path d="M 0.578125 0 L 0.578125 -0.140625 L 1.0625 -0.140625 C 1.40625 -0.140625 1.644531 -0.210938 1.78125 -0.359375 C 1.925781 -0.503906 2 -0.78125 2 -1.1875 L 2 -8.40625 C 2 -8.800781 1.925781 -9.070312 1.78125 -9.21875 C 1.644531 -9.363281 1.40625 -9.4375 1.0625 -9.4375 L 0.578125 -9.4375 L 0.578125 -9.578125 L 2.65625 -9.578125 L 8.03125 -1.375 L 8.03125 -8.375 C 8.03125 -8.789062 7.960938 -9.070312 7.828125 -9.21875 C 7.691406 -9.363281 7.445312 -9.4375 7.09375 -9.4375 L 6.640625 -9.4375 L 6.640625 -9.578125 L 9.578125 -9.578125 L 9.578125 -9.4375 L 9.109375 -9.4375 C 8.753906 -9.4375 8.507812 -9.363281 8.375 -9.21875 C 8.238281 -9.070312 8.171875 -8.789062 8.171875 -8.375 L 8.171875 0 L 7.890625 0 L 2.125 -8.734375 L 2.125 -1.1875 C 2.125 -0.78125 2.191406 -0.503906 2.328125 -0.359375 C 2.460938 -0.210938 2.707031 -0.140625 3.0625 -0.140625 L 3.53125 -0.140625 L 3.53125 0 Z M 0.578125 0 "/></g></g></g><g fill="#000000" fill-opacity="1"><g transform="translate(14.130601, 21.394611)"><g><path d="M 2.0625 -8.640625 C 1.9375 -8.640625 1.832031 -8.6875 1.75 -8.78125 C 1.664062 -8.875 1.625 -9.046875 1.625 -9.296875 C 1.625 -9.546875 1.664062 -9.710938 1.75 -9.796875 C 1.832031 -9.890625 1.9375 -9.9375 2.0625 -9.9375 C 2.1875 -9.9375 2.289062 -9.890625 2.375 -9.796875 C 2.457031 -9.710938 2.5 -9.546875 2.5 -9.296875 C 2.5 -9.046875 2.457031 -8.875 2.375 -8.78125 C 2.289062 -8.6875 2.1875 -8.640625 2.0625 -8.640625 Z M 0.359375 0 L 0.359375 -0.140625 L 0.625 -0.140625 C 1.0625 -0.140625 1.347656 -0.203125 1.484375 -0.328125 C 1.628906 -0.460938 1.703125 -0.738281 1.703125 -1.15625 L 1.703125 -6 C 1.703125 -6.4375 1.628906 -6.71875 1.484375 -6.84375 C 1.347656 -6.976562 1.085938 -7.046875 0.703125 -7.046875 L 0.5625 -7.046875 L 0.5625 -7.1875 L 2.5625 -7.1875 L 2.5625 -1.1875 C 2.5625 -0.75 2.628906 -0.460938 2.765625 -0.328125 C 2.898438 -0.203125 3.191406 -0.140625 3.640625 -0.140625 L 3.921875 -0.140625 L 3.921875 0 Z M 0.359375 0 "/></g></g></g><g fill="#000000" fill-opacity="1"><g transform="translate(18.177944, 21.394611)"><g><path d="M 2.8125 0.140625 C 2.101562 0.140625 1.578125 0 1.234375 -0.28125 C 0.890625 -0.5625 0.71875 -0.894531 0.71875 -1.28125 C 0.71875 -1.570312 0.785156 -1.769531 0.921875 -1.875 C 1.054688 -1.976562 1.195312 -2.03125 1.34375 -2.03125 C 1.34375 -1.363281 1.441406 -0.859375 1.640625 -0.515625 C 1.847656 -0.171875 2.242188 0 2.828125 0 C 3.328125 0 3.710938 -0.140625 3.984375 -0.421875 C 4.253906 -0.710938 4.390625 -1.101562 4.390625 -1.59375 C 4.390625 -1.863281 4.347656 -2.085938 4.265625 -2.265625 C 4.179688 -2.441406 4.03125 -2.601562 3.8125 -2.75 C 3.59375 -2.894531 3.28125 -3.066406 2.875 -3.265625 C 2.363281 -3.515625 1.957031 -3.75 1.65625 -3.96875 C 1.363281 -4.1875 1.15625 -4.414062 1.03125 -4.65625 C 0.90625 -4.90625 0.84375 -5.191406 0.84375 -5.515625 C 0.84375 -6.078125 1.035156 -6.515625 1.421875 -6.828125 C 1.804688 -7.140625 2.332031 -7.296875 3 -7.296875 C 3.625 -7.296875 4.09375 -7.160156 4.40625 -6.890625 C 4.71875 -6.628906 4.875 -6.335938 4.875 -6.015625 C 4.875 -5.816406 4.816406 -5.648438 4.703125 -5.515625 C 4.585938 -5.390625 4.421875 -5.328125 4.203125 -5.328125 C 4.203125 -6.023438 4.097656 -6.503906 3.890625 -6.765625 C 3.679688 -7.023438 3.367188 -7.15625 2.953125 -7.15625 C 2.484375 -7.15625 2.132812 -7.035156 1.90625 -6.796875 C 1.675781 -6.554688 1.5625 -6.21875 1.5625 -5.78125 C 1.5625 -5.476562 1.625 -5.226562 1.75 -5.03125 C 1.875 -4.84375 2.0625 -4.671875 2.3125 -4.515625 C 2.570312 -4.359375 2.894531 -4.191406 3.28125 -4.015625 C 3.769531 -3.785156 4.144531 -3.566406 4.40625 -3.359375 C 4.675781 -3.160156 4.863281 -2.941406 4.96875 -2.703125 C 5.070312 -2.460938 5.125 -2.1875 5.125 -1.875 C 5.125 -1.238281 4.910156 -0.742188 4.484375 -0.390625 C 4.066406 -0.0351562 3.507812 0.140625 2.8125 0.140625 Z M 2.8125 0.140625 "/></g></g></g><g fill="#000000" fill-opacity="1"><g transform="translate(23.940716, 21.394611)"><g><path d="M 2.78125 0.140625 C 2.125 0.140625 1.613281 -0.03125 1.25 -0.375 C 0.882812 -0.71875 0.703125 -1.207031 0.703125 -1.84375 C 0.703125 -2.550781 0.957031 -3.066406 1.46875 -3.390625 C 1.976562 -3.722656 2.753906 -3.90625 3.796875 -3.9375 L 4.90625 -3.984375 L 4.90625 -4.984375 C 4.90625 -5.472656 4.867188 -5.875 4.796875 -6.1875 C 4.734375 -6.507812 4.597656 -6.75 4.390625 -6.90625 C 4.179688 -7.070312 3.863281 -7.15625 3.4375 -7.15625 C 2.851562 -7.15625 2.472656 -7 2.296875 -6.6875 C 2.117188 -6.375 2.03125 -5.890625 2.03125 -5.234375 C 1.53125 -5.234375 1.28125 -5.445312 1.28125 -5.875 C 1.28125 -6.300781 1.460938 -6.644531 1.828125 -6.90625 C 2.203125 -7.164062 2.742188 -7.296875 3.453125 -7.296875 C 4.265625 -7.296875 4.851562 -7.113281 5.21875 -6.75 C 5.582031 -6.382812 5.765625 -5.828125 5.765625 -5.078125 L 5.765625 -1.15625 C 5.765625 -0.75 5.816406 -0.476562 5.921875 -0.34375 C 6.035156 -0.207031 6.253906 -0.140625 6.578125 -0.140625 L 6.640625 -0.140625 L 6.640625 0 L 4.96875 0 L 4.96875 -1.46875 L 4.953125 -1.46875 C 4.804688 -1.019531 4.550781 -0.640625 4.1875 -0.328125 C 3.820312 -0.015625 3.351562 0.140625 2.78125 0.140625 Z M 2.96875 -0.046875 C 3.332031 -0.046875 3.660156 -0.144531 3.953125 -0.34375 C 4.242188 -0.539062 4.472656 -0.796875 4.640625 -1.109375 C 4.816406 -1.421875 4.90625 -1.742188 4.90625 -2.078125 L 4.90625 -3.84375 L 3.921875 -3.8125 C 3.054688 -3.769531 2.445312 -3.582031 2.09375 -3.25 C 1.75 -2.914062 1.578125 -2.414062 1.578125 -1.75 C 1.578125 -1.226562 1.6875 -0.8125 1.90625 -0.5 C 2.132812 -0.195312 2.488281 -0.046875 2.96875 -0.046875 Z M 2.96875 -0.046875 "/></g></g></g><g fill="#000000" fill-opacity="1"><g transform="translate(31.204489, 21.394611)"><g><path d="M 0.46875 0 L 0.46875 -0.140625 L 0.703125 -0.140625 C 1.085938 -0.140625 1.347656 -0.203125 1.484375 -0.328125 C 1.628906 -0.460938 1.703125 -0.742188 1.703125 -1.171875 L 1.703125 -6.03125 C 1.703125 -6.445312 1.628906 -6.71875 1.484375 -6.84375 C 1.347656 -6.976562 1.0625 -7.046875 0.625 -7.046875 L 0.515625 -7.046875 L 0.515625 -7.1875 L 2.546875 -7.1875 L 2.546875 -5.609375 L 2.578125 -5.609375 C 2.648438 -5.867188 2.753906 -6.128906 2.890625 -6.390625 C 3.035156 -6.648438 3.234375 -6.867188 3.484375 -7.046875 C 3.734375 -7.222656 4.054688 -7.3125 4.453125 -7.3125 C 4.847656 -7.3125 5.15625 -7.222656 5.375 -7.046875 C 5.601562 -6.867188 5.71875 -6.640625 5.71875 -6.359375 C 5.71875 -6.160156 5.648438 -5.988281 5.515625 -5.84375 C 5.390625 -5.707031 5.171875 -5.640625 4.859375 -5.640625 C 4.859375 -6.128906 4.78125 -6.46875 4.625 -6.65625 C 4.46875 -6.851562 4.257812 -6.953125 4 -6.953125 C 3.738281 -6.953125 3.515625 -6.863281 3.328125 -6.6875 C 3.148438 -6.519531 3.003906 -6.289062 2.890625 -6 C 2.773438 -5.71875 2.691406 -5.40625 2.640625 -5.0625 C 2.585938 -4.726562 2.5625 -4.390625 2.5625 -4.046875 L 2.5625 -1.203125 C 2.5625 -0.753906 2.628906 -0.460938 2.765625 -0.328125 C 2.898438 -0.203125 3.164062 -0.140625 3.5625 -0.140625 L 3.875 -0.140625 L 3.875 0 Z M 0.46875 0 "/></g></g></g><g fill="#000000" fill-opacity="1"><g transform="translate(37.114681, 21.394611)"><g><path d="M 3.140625 3.21875 C 2.253906 3.21875 1.585938 3.035156 1.140625 2.671875 C 0.691406 2.316406 0.46875 1.84375 0.46875 1.25 C 0.46875 0.75 0.648438 0.347656 1.015625 0.046875 C 1.390625 -0.253906 1.851562 -0.410156 2.40625 -0.421875 C 2.070312 -0.515625 1.816406 -0.664062 1.640625 -0.875 C 1.460938 -1.09375 1.375 -1.332031 1.375 -1.59375 C 1.375 -1.8125 1.445312 -2.023438 1.59375 -2.234375 C 1.75 -2.453125 1.984375 -2.640625 2.296875 -2.796875 C 1.867188 -2.972656 1.546875 -3.25 1.328125 -3.625 C 1.117188 -4.007812 1.015625 -4.4375 1.015625 -4.90625 C 1.015625 -5.625 1.210938 -6.203125 1.609375 -6.640625 C 2.015625 -7.078125 2.609375 -7.296875 3.390625 -7.296875 C 3.703125 -7.296875 3.984375 -7.25 4.234375 -7.15625 C 4.492188 -7.070312 4.71875 -6.945312 4.90625 -6.78125 C 5.09375 -6.976562 5.285156 -7.148438 5.484375 -7.296875 C 5.691406 -7.453125 5.921875 -7.53125 6.171875 -7.53125 C 6.378906 -7.53125 6.539062 -7.472656 6.65625 -7.359375 C 6.78125 -7.242188 6.84375 -7.09375 6.84375 -6.90625 C 6.84375 -6.738281 6.796875 -6.601562 6.703125 -6.5 C 6.609375 -6.394531 6.476562 -6.34375 6.3125 -6.34375 C 6.3125 -6.613281 6.269531 -6.8125 6.1875 -6.9375 C 6.113281 -7.0625 5.988281 -7.125 5.8125 -7.125 C 5.601562 -7.125 5.335938 -6.984375 5.015625 -6.703125 C 5.203125 -6.523438 5.359375 -6.269531 5.484375 -5.9375 C 5.609375 -5.613281 5.671875 -5.257812 5.671875 -4.875 C 5.671875 -4.21875 5.476562 -3.671875 5.09375 -3.234375 C 4.71875 -2.804688 4.148438 -2.59375 3.390625 -2.59375 C 3.222656 -2.59375 3.054688 -2.601562 2.890625 -2.625 C 2.734375 -2.65625 2.585938 -2.691406 2.453125 -2.734375 C 2.242188 -2.617188 2.097656 -2.488281 2.015625 -2.34375 C 1.929688 -2.207031 1.890625 -2.066406 1.890625 -1.921875 C 1.890625 -1.660156 1.984375 -1.460938 2.171875 -1.328125 C 2.367188 -1.203125 2.640625 -1.140625 2.984375 -1.140625 L 4.328125 -1.140625 C 5.054688 -1.140625 5.585938 -0.96875 5.921875 -0.625 C 6.253906 -0.28125 6.421875 0.1875 6.421875 0.78125 C 6.421875 1.519531 6.148438 2.109375 5.609375 2.546875 C 5.066406 2.992188 4.242188 3.21875 3.140625 3.21875 Z M 3.359375 -2.734375 C 3.847656 -2.734375 4.210938 -2.894531 4.453125 -3.21875 C 4.691406 -3.539062 4.8125 -4.09375 4.8125 -4.875 C 4.8125 -5.6875 4.691406 -6.269531 4.453125 -6.625 C 4.210938 -6.976562 3.847656 -7.15625 3.359375 -7.15625 C 2.878906 -7.15625 2.507812 -6.972656 2.25 -6.609375 C 2 -6.242188 1.875 -5.660156 1.875 -4.859375 C 1.875 -4.109375 2.003906 -3.566406 2.265625 -3.234375 C 2.523438 -2.898438 2.890625 -2.734375 3.359375 -2.734375 Z M 3.21875 3.078125 C 4.882812 3.078125 5.71875 2.410156 5.71875 1.078125 C 5.71875 0.566406 5.585938 0.207031 5.328125 0 C 5.078125 -0.21875 4.695312 -0.328125 4.1875 -0.328125 L 2.828125 -0.328125 C 2.535156 -0.328125 2.265625 -0.273438 2.015625 -0.171875 C 1.765625 -0.078125 1.5625 0.0859375 1.40625 0.328125 C 1.257812 0.566406 1.1875 0.882812 1.1875 1.28125 C 1.1875 1.84375 1.347656 2.28125 1.671875 2.59375 C 1.992188 2.914062 2.507812 3.078125 3.21875 3.078125 Z M 3.21875 3.078125 "/></g></g></g></svg>